HIERARCHY
ROOT hip
{
  OFFSET 0 0 0
  CHANNELS 6 Xposition Yposition Zposition Zrotation Yrotation Xrotation
  JOINT abdomen
  {
    OFFSET 0 20.6881 -0.73152
    CHANNELS 3 Zrotation Xrotation Yrotation
    JOINT chest
    {
      OFFSET 0 11.7043 -0.48768
      CHANNELS 3 Zrotation Xrotation Yrotation
      JOINT neck
      {
        OFFSET 0 22.1894 -2.19456
        CHANNELS 3 Zrotation Xrotation Yrotation
        JOINT head
        {
          OFFSET -0.24384 7.07133 1.2192
          CHANNELS 3 Zrotation Xrotation Yrotation
          JOINT leftEye
          {
            OFFSET 4.14528 8.04674 8.04672
            CHANNELS 3 Zrotation Xrotation Yrotation
            End Site
            {
              OFFSET 1 0 0
            }
          }
          JOINT rightEye
          {
            OFFSET -3.6576 8.04674 8.04672
            CHANNELS 3 Zrotation Xrotation Yrotation
            End Site
            {
              OFFSET 1 0 0
            }
          }
        }
      }
      JOINT rCollar
      {
        OFFSET -2.68224 19.2634 -4.8768
        CHANNELS 3 Zrotation Xrotation Yrotation
        JOINT rShldr
        {
          OFFSET -8.77824 -1.95073 1.46304
          CHANNELS 3 Zrotation Xrotation Yrotation
          JOINT rForeArm
          {
            OFFSET -28.1742 -1.7115 0.48768
            CHANNELS 3 Zrotation Xrotation Yrotation
            JOINT rHand
            {
              OFFSET -22.5879 0.773209 7.07136
              CHANNELS 3 Zrotation Xrotation Yrotation
              JOINT rThumb1
              {
                OFFSET -1.2192 -0.487915 3.41376
                CHANNELS 3 Zrotation Xrotation Yrotation
                JOINT rThumb2
                {
                  OFFSET -3.37035 -0.52449 3.41376
                  CHANNELS 3 Zrotation Xrotation Yrotation
                  End Site
                  {
                    OFFSET -1.78271 -1.18214 1.43049
                  }
                }
              }
              JOINT rIndex1
              {
                OFFSET -7.75947 0.938293 5.60832
                CHANNELS 3 Zrotation Xrotation Yrotation
                JOINT rIndex2
                {
                  OFFSET -2.54057 -0.884171 1.56538
                  CHANNELS 3 Zrotation Xrotation Yrotation
                  End Site
                  {
                    OFFSET -1.62519 -0.234802 1.16502
                  }
                }
              }
              JOINT rMid1
              {
                OFFSET -8.24714 1.18213 3.41376
                CHANNELS 3 Zrotation Xrotation Yrotation
                JOINT rMid2
                {
                  OFFSET -3.10165 -0.590103 1.0647
                  CHANNELS 3 Zrotation Xrotation Yrotation
                  End Site
                  {
                    OFFSET -2.48547 -0.328903 0.83742
                  }
                }
              }
              JOINT rRing1
              {
                OFFSET -8.82822 0.546677 1.51678
                CHANNELS 3 Zrotation Xrotation Yrotation
                JOINT rRing2
                {
                  OFFSET -2.60934 -0.819778 -0.0198488
                  CHANNELS 3 Zrotation Xrotation Yrotation
                  End Site
                  {
                    OFFSET -2.33842 -0.294052 0.168128
                  }
                }
              }
              JOINT rPinky1
              {
                OFFSET -8.27202 -0.0477905 -0.4584
                CHANNELS 3 Zrotation Xrotation Yrotation
                JOINT rPinky2
                {
                  OFFSET -1.82734 -0.647385 -0.700984
                  CHANNELS 3 Zrotation Xrotation Yrotation
                  End Site
                  {
                    OFFSET -1.69225 -0.51767 -0.607171
                  }
                }
              }
            }
          }
        }
      }
      JOINT lCollar
      {
        OFFSET 2.68224 19.2634 -4.8768
        CHANNELS 3 Zrotation Xrotation Yrotation
        JOINT lShldr
        {
          OFFSET 8.77824 -1.95073 1.46304
          CHANNELS 3 Zrotation Xrotation Yrotation
          JOINT lForeArm
          {
            OFFSET 28.1742 -1.7115 0.48768
            CHANNELS 3 Zrotation Xrotation Yrotation
            JOINT lHand
            {
              OFFSET 22.5879 0.773209 7.07136
              CHANNELS 3 Zrotation Xrotation Yrotation
              JOINT lThumb1
              {
                OFFSET 1.2192 -0.487915 3.41376
                CHANNELS 3 Zrotation Xrotation Yrotation
                JOINT lThumb2
                {
                  OFFSET 3.37035 -0.52449 3.41376
                  CHANNELS 3 Zrotation Xrotation Yrotation
                  End Site
                  {
                    OFFSET 1.78271 -1.18214 1.43049
                  }
                }
              }
              JOINT lIndex1
              {
                OFFSET 7.75947 0.938293 5.60832
                CHANNELS 3 Zrotation Xrotation Yrotation
                JOINT lIndex2
                {
                  OFFSET 2.54057 -0.884171 1.56538
                  CHANNELS 3 Zrotation Xrotation Yrotation
                  End Site
                  {
                    OFFSET 1.62519 -0.234802 1.16502
                  }
                }
              }
              JOINT lMid1
              {
                OFFSET 8.24714 1.18213 3.41376
                CHANNELS 3 Zrotation Xrotation Yrotation
                JOINT lMid2
                {
                  OFFSET 3.10165 -0.590103 1.0647
                  CHANNELS 3 Zrotation Xrotation Yrotation
                  End Site
                  {
                    OFFSET 2.48547 -0.328903 0.83742
                  }
                }
              }
              JOINT lRing1
              {
                OFFSET 8.82822 0.546677 1.51678
                CHANNELS 3 Zrotation Xrotation Yrotation
                JOINT lRing2
                {
                  OFFSET 2.60934 -0.819778 -0.0198488
                  CHANNELS 3 Zrotation Xrotation Yrotation
                  End Site
                  {
                    OFFSET 2.33842 -0.294052 0.168128
                  }
                }
              }
              JOINT lPinky1
              {
                OFFSET 8.27202 -0.0477905 -0.4584
                CHANNELS 3 Zrotation Xrotation Yrotation
                JOINT lPinky2
                {
                  OFFSET 1.82734 -0.647385 -0.700984
                  CHANNELS 3 Zrotation Xrotation Yrotation
                  End Site
                  {
                    OFFSET 1.69225 -0.51767 -0.607171
                  }
                }
              }
            }
          }
        }
      }
    }
  }
  JOINT rButtock
  {
    OFFSET -8.77824 4.35084 1.2192
    CHANNELS 3 Zrotation Xrotation Yrotation
    JOINT rThigh
    {
      OFFSET 0 -1.70687 -2.19456
      CHANNELS 3 Zrotation Xrotation Yrotation
      JOINT rShin
      {
        OFFSET 0 -36.8199 0.73152
        CHANNELS 3 Zrotation Xrotation Yrotation
        JOINT rFoot
        {
          OFFSET 0.73152 -45.1104 -5.12064
          CHANNELS 3 Zrotation Xrotation Yrotation
          End Site
          {
            OFFSET -1.1221 -3.69964 12.103
          }
        }
      }
    }
  }
  JOINT lButtock
  {
    OFFSET 8.77824 4.35084 1.2192
    CHANNELS 3 Zrotation Xrotation Yrotation
    JOINT lThigh
    {
      OFFSET 0 -1.70687 -2.19456
      CHANNELS 3 Zrotation Xrotation Yrotation
      JOINT lShin
      {
        OFFSET 0 -36.8199 0.73152
        CHANNELS 3 Zrotation Xrotation Yrotation
        JOINT lFoot
        {
          OFFSET -0.73152 -45.1104 -5.12064
          CHANNELS 3 Zrotation Xrotation Yrotation
          End Site
          {
            OFFSET 1.1221 -3.69964 12.103
          }
        }
      }
    }
  }
}
MOTION
Frames:	4
Frame Time:	0.00833333
2.76931 83.6554 5.46402 0.0 0.0 0.0 -2.30016 -0.000942048 -0.0623528 -0.634479 0.00830844 -0.109827 -4.5383e-14 7.95139e-16 -2.23633e-16 -1.36419e-13 3.18055e-15 -6.74004e-16 -0.0 0.0 0.0 -0.0 0.0 0.0 -2.27138e-14 -1.07546e-16 4.96962e-17 -4.75619e-13 -2.57799e-15 -3.57812e-15 -8.20086e-12 2.38104e-12 4.13472e-14 -9.39404e-11 -2.87783e-12 -6.42472e-13 -2.21576e-10 -1.07358e-12 -1.25314e-12 -3.82662e-10 -1.85426e-12 -2.15403e-12 -2.21573e-10 -1.07224e-12 -1.26586e-12 7.73091 5.47488 0.417314 -2.21578e-10 -1.07443e-12 -1.24996e-12 2.90554 0.965183 0.102902 -2.21568e-10 -1.07314e-12 -1.25234e-12 10.2786 0.731801 0.0259123 -2.21583e-10 -1.07264e-12 -1.24042e-12 2.22167 -0.733487 -0.20892 -2.29087e-14 -1.1104e-16 -2.48481e-16 -4.78035e-13 -2.46617e-15 -4.77083e-15 -8.211e-12 -2.53212e-12 6.36111e-15 -9.3912e-11 2.04192e-12 -5.82042e-13 -2.2154e-10 -1.06013e-12 -1.24042e-12 -3.82579e-10 -1.82246e-12 -2.12859e-12 -2.21542e-10 -1.06111e-12 -1.23406e-12 -7.73091 5.47488 -0.417314 -2.21539e-10 -1.06042e-12 -1.24042e-12 -2.90554 0.965183 -0.102902 -2.2154e-10 -1.06032e-12 -1.24121e-12 -10.2786 0.731801 -0.0259123 -2.21533e-10 -1.05634e-12 -1.2436e-12 -2.22167 -0.733487 0.20892 -2.03217e-16 0.0 -3.88251e-19 -1.2827 -1.92859 0.00418725 -0.00872935 -2.07863 -0.0717834 -0.462945 3.99877 0.133065 2.03217e-16 0.0 3.88251e-19 -2.21844 -7.92848 0.22851 -0.00571399 8.7892 -0.144989 0.50946 -0.869093 -0.0399106
2.23998 83.3803 5.31768 -1.4946 -0.4449 -0.2347 -3.03791 3.05811 0.730658 -0.604112 -1.75349 0.0571475 -4.64841 4.71886 -3.46488 6.85673 -4.57858 -6.08877 -0.0 0.0 0.0 -0.0 0.0 0.0 2.11303e-15 -3.94993e-15 -1.25339e-14 23.259 9.44862 1.41304 -3.72943 -1.60752 5.91605 0.0123794 2.46849 0.345761 -3.38235e-10 1.62861e-10 -5.48824e-11 -5.84442e-10 2.80593e-10 -9.35579e-11 -3.3823e-10 1.62863e-10 -5.4893e-11 7.73091 5.47488 0.417314 -3.38237e-10 1.62861e-10 -5.48812e-11 2.90554 0.965183 0.102902 -3.38229e-10 1.62863e-10 -5.48806e-11 10.2786 0.731801 0.0259123 -3.3824e-10 1.62864e-10 -5.48695e-11 2.22167 -0.733487 -0.20892 1.95986e-15 -3.94927e-15 -1.28003e-14 -20.6857 11.9018 0.279016 11.4106 -8.31746 -13.1364 -0.00106783 -0.724937 0.101854 -4.24979e-10 -1.56488e-10 2.82985e-10 -7.35436e-10 -2.73139e-10 4.89177e-10 -4.24982e-10 -1.56489e-10 2.82993e-10 -7.73091 5.47488 -0.417314 -4.24978e-10 -1.56486e-10 2.82988e-10 -2.90554 0.965183 -0.102902 -4.2498e-10 -1.56488e-10 2.82986e-10 -10.2786 0.731801 -0.0259123 -4.24973e-10 -1.56485e-10 2.82982e-10 -2.22167 -0.733487 0.20892 -2.03217e-16 0.0 -3.88251e-19 -1.83663 -1.37427 3.4855 -0.0102341 0.888026 -0.00495608 -0.679035 1.63761 -3.53265 2.03217e-16 0.0 3.88251e-19 -1.25696 -6.63706 -3.1354 -0.00169276 10.2866 -0.170432 0.607716 -2.72006 2.98483
2.23797 83.3802 5.31839 -1.4963 -0.4624 -0.2355 -3.9105 6.29011 1.57716 -0.559806 -3.61748 0.234349 -8.93212 9.65776 -7.20624 13.0445 -9.26806 -12.6507 -0.0 0.0 0.0 -0.0 0.0 0.0 2.96706e-14 -8.25036e-15 -2.66899e-14 47.3124 19.4169 3.04039 -7.31174 -3.24888 12.1829 -0.00705022 5.07962 0.713684 -4.74745e-10 3.49536e-10 -1.17359e-10 -8.20566e-10 6.02245e-10 -2.00087e-10 -4.7474e-10 3.49539e-10 -1.17367e-10 7.73091 5.47488 0.417314 -4.74748e-10 3.49538e-10 -1.1736e-10 2.90554 0.965183 0.102902 -4.74742e-10 3.4954e-10 -1.17356e-10 10.2786 0.731801 0.0259123 -4.74749e-10 3.49541e-10 -1.17346e-10 2.22167 -0.733487 -0.20892 2.95629e-14 -8.24544e-15 -2.69198e-14 -42.6907 24.4854 0.617976 19.3454 -15.6319 -27.8466 0.000605889 -1.49007 0.209411 -6.61251e-10 -3.37671e-10 6.04248e-10 -1.14521e-09 -5.89342e-10 1.04451e-09 -6.61255e-10 -3.37672e-10 6.04258e-10 -7.73091 5.47488 -0.417314 -6.6125e-10 -3.37666e-10 6.04254e-10 -2.90554 0.965183 -0.102902 -6.61252e-10 -3.37671e-10 6.04251e-10 -10.2786 0.731801 -0.0259123 -6.61246e-10 -3.37668e-10 6.04245e-10 -2.22167 -0.733487 0.20892 -2.03217e-16 0.0 -3.88251e-19 -2.49415 -0.786699 7.16657 -0.0193765 4.02449 0.0658373 -1.23549 -0.845883 -7.40714 2.03217e-16 0.0 3.88251e-19 -0.0744287 -5.25579 -6.67414 0.00402036 11.8697 -0.197715 0.924222 -4.65661 6.19554
2.23768 83.3811 5.32 -1.4966 -0.4653 -0.2427 -4.77013 9.16942 2.34352 -0.512476 -5.27696 0.392682 -12.1995 13.9465 -10.6777 17.6406 -13.109 -18.7128 -0.0 0.0 0.0 -0.0 0.0 0.0 5.17668e-14 -1.16347e-14 -3.77011e-14 68.2196 28.272 4.74923 -10.2074 -4.61729 17.8008 -0.0528754 7.40438 1.04504 -5.71552e-10 4.9073e-10 -1.62141e-10 -9.88001e-10 8.45489e-10 -2.76366e-10 -5.71546e-10 4.90733e-10 -1.62147e-10 7.73091 5.47488 0.417314 -5.71555e-10 4.90733e-10 -1.62144e-10 2.90554 0.965183 0.102902 -5.71551e-10 4.90735e-10 -1.62137e-10 10.2786 0.731801 0.0259123 -5.71554e-10 4.90737e-10 -1.62128e-10 2.22167 -0.733487 -0.20892 5.1697e-14 -1.16257e-14 -3.79038e-14 -62.473 35.7015 1.00862 23.2485 -19.6343 -41.9119 0.00453347 -2.17478 0.305757 -8.31857e-10 -4.67343e-10 8.51436e-10 -1.44115e-09 -8.15773e-10 1.47179e-09 -8.31862e-10 -4.67345e-10 8.51448e-10 -7.73091 5.47488 -0.417314 -8.31857e-10 -4.67336e-10 8.51445e-10 -2.90554 0.965183 -0.102902 -8.31858e-10 -4.67344e-10 8.51441e-10 -10.2786 0.731801 -0.0259123 -8.31853e-10 -4.67341e-10 8.51433e-10 -2.22167 -0.733487 0.20892 -2.03217e-16 0.0 -3.88251e-19 -3.14574 -0.268728 10.4452 -0.0340654 6.82133 0.129523 -2.01295 -3.02028 -10.8744 2.03217e-16 0.0 3.88251e-19 1.12135 -4.02405 -9.82019 0.0104603 13.2813 -0.222455 1.39088 -6.35309 9.08044
